<?xml version="1.0" encoding="UTF-8"?>
<svg width="900" height="600" viewBox="-72 -48 144 96" xmlns="http://www.w3.org/2000/svg" xmlns:xlink="http://www.w3.org/1999/xlink">
 <defs>
  <rect id="b" x="-12" y="-2" width="24" height="4"/>
  <g id="a">
   <rect x="-12" y="-2" width="11" height="4"/>
   <rect x="1" y="-2" width="11" height="4"/>
  </g>
 </defs>
 <rect x="-50%" y="-50%" width="100%" height="100%" fill="#fff"/>
 <g transform="rotate(56.31)">
  <use transform="translate(0,-38)" xlink:href="#a"/>
  <use transform="translate(0,-44)" xlink:href="#b"/>
  <use transform="translate(0,-50)" xlink:href="#a"/>
  <use transform="translate(0,38)" xlink:href="#b"/>
  <use transform="translate(0,44)" xlink:href="#a"/>
  <use transform="translate(0,50)" xlink:href="#b"/>
 </g>
 <g transform="rotate(-56.31)">
  <use transform="translate(0,-38)" xlink:href="#b"/>
  <use transform="translate(0,-44)" xlink:href="#b"/>
  <use transform="translate(0,-50)" xlink:href="#b"/>
  <use transform="translate(0,38)" xlink:href="#a"/>
  <use transform="translate(0,44)" xlink:href="#a"/>
  <use transform="translate(0,50)" xlink:href="#a"/>
  <path d="m0 24a24 24 0 0 0 0 -48 18 18 0 0 0 0 36" fill="#c60c30"/>
  <path d="m0-24a12 12 0 0 0 0 24 12 12 0 0 1 0 24 24 24 0 0 1 0 -48" fill="#003478"/>
 </g>
</svg>
